<?xml version="1.0" encoding="UTF-8" standalone="no"?>
<!-- Created with Inkscape (http://www.inkscape.org/) -->

<svg
   xmlns:dc="http://purl.org/dc/elements/1.1/"
   xmlns:cc="http://creativecommons.org/ns#"
   xmlns:rdf="http://www.w3.org/1999/02/22-rdf-syntax-ns#"
   xmlns:svg="http://www.w3.org/2000/svg"
   xmlns="http://www.w3.org/2000/svg"
   xmlns:sodipodi="http://sodipodi.sourceforge.net/DTD/sodipodi-0.dtd"
   xmlns:inkscape="http://www.inkscape.org/namespaces/inkscape"
   width="834"
   height="157.24001"
   id="svg2"
   version="1.1"
   inkscape:version="0.48.0 r9654"
   sodipodi:docname="idle-bg.svg">
  <defs
     id="defs4" />
  <sodipodi:namedview
     id="base"
     pagecolor="#ffffff"
     bordercolor="#666666"
     borderopacity="1.0"
     inkscape:pageopacity="0.0"
     inkscape:pageshadow="2"
     inkscape:zoom="0.7"
     inkscape:cx="509.88003"
     inkscape:cy="-81.666024"
     inkscape:document-units="px"
     inkscape:current-layer="layer1"
     showgrid="false"
     inkscape:window-width="1258"
     inkscape:window-height="954"
     inkscape:window-x="418"
     inkscape:window-y="76"
     inkscape:window-maximized="0"
     fit-margin-top="0.3"
     fit-margin-left="0.3"
     fit-margin-right="0.3"
     fit-margin-bottom="0.2"
     units="px"
     showborder="true" />
  <metadata
     id="metadata7">
    <rdf:RDF>
      <cc:Work
         rdf:about="">
        <dc:format>image/svg+xml</dc:format>
        <dc:type
           rdf:resource="http://purl.org/dc/dcmitype/StillImage" />
        <dc:title></dc:title>
      </cc:Work>
    </rdf:RDF>
  </metadata>
  <g
     inkscape:label="Layer 1"
     inkscape:groupmode="layer"
     id="layer1"
     transform="translate(21.3,-527.57679)">
    <path
       id="path3799"
       style="color:#000000;fill:#0000b8;fill-opacity:1;fill-rule:nonzero;stroke:none;stroke-width:0.99921262000000000;marker:none;visibility:visible;display:inline;overflow:visible;enable-background:accumulate;opacity:0.10050251"
       d="m 455.96875,527.90625 c -6.04522,1.61192 -11.59434,4.58717 -17.2873,7.10819 -15.43427,7.26567 -30.33125,15.61622 -44.91241,24.45688 -23.94756,14.30893 -47.21208,29.72527 -71.12873,44.08404 -12.51472,7.51216 -25.23539,14.72504 -38.50697,20.82628 -8.50714,4.10445 -18.01333,6.25868 -27.47227,5.70522 -10.09246,-0.44865 -20.09038,-2.01923 -30.15103,-2.86512 -21.60593,-2.0361 -43.32034,-3.25099 -65.02693,-2.73553 -14.99896,0.40007 -29.96526,2.08761 -44.65663,5.14871 -15.01825,2.98742 -29.799512,7.03257 -44.544984,11.13016 C 49.09181,647.61925 26.295949,655.78092 3.9721948,665.0715 -4.4154299,668.5544 -12.763417,672.14026 -21,675.96875 c 24.1052399,-8.59476 48.307138,-16.95492 72.866005,-24.1723 17.626538,-5.21094 35.438288,-9.80986 53.430095,-13.57935 15.32789,-3.35273 30.77709,-6.36949 46.44121,-7.59348 9.96955,-0.84392 19.99735,-1.01862 29.9856,-0.4045 20.53957,0.90752 40.99008,3.16162 61.51405,4.32379 8.00371,0.44999 16.0242,0.83743 24.04183,0.69155 5.81419,-0.15448 11.64607,-1.1832 16.98444,-3.55297 7.36013,-3.00433 14.05833,-7.35216 20.85211,-11.42853 26.22126,-16.22475 52.18969,-32.85463 78.41323,-49.07555 8.16052,-4.97643 16.26259,-10.05865 24.60445,-14.72831 13.45395,-7.51766 27.4176,-14.22866 42.07073,-19.07167 2.88369,-0.9943 5.84059,-1.94789 8.89,-2.22118 4.88854,-0.0874 9.51778,2.68263 12.22889,6.67195 4.01201,5.38442 5.36235,12.11001 7.24495,18.41811 3.70623,13.51592 6.54049,27.25721 10.43221,40.72443 0.30215,1.1035 0.6043,2.20701 0.90645,3.31051 -3.95377,-18.08017 -7.15336,-36.36368 -12.54159,-54.09525 -1.75476,-5.58739 -3.47076,-11.53933 -7.71523,-15.80684 -3.48386,-3.5931 -8.21165,-6.24218 -13.27443,-6.50416 -0.13542,0.0104 -0.27083,0.0208 -0.40625,0.0312 z m 129.625,65.3125 c -6.92418,1.03845 -13.31155,4.0535 -19.85337,6.38995 -11.3605,4.34986 -22.72249,9.008 -34.76791,11.10508 -7.64404,1.46262 -15.40294,2.46755 -22.87872,4.69247 0.6447,0.92179 1.82301,-0.16945 2.71313,0.0753 13.92695,-1.28395 27.77753,-3.53316 41.31012,-7.09335 10.2959,-2.56047 20.48807,-5.67026 30.99101,-7.28841 2.62784,-0.39268 5.27839,0.12239 7.70866,1.13707 3.85363,1.37827 8.01885,3.00703 12.12083,2.16936 3.96304,-1.13778 7.52838,-3.5668 11.6875,-4 3.73476,-0.33309 7.02359,1.62107 10.06497,3.5282 4.78131,2.95424 9.48899,6.56624 15.07662,7.70438 7.08215,1.67011 14.51358,2.01741 21.81696,2.31721 13.34982,0.58605 26.87626,0.86515 39.86186,4.34295 4.59417,1.22989 9.40932,2.65457 12.86709,6.10726 4.69455,4.53506 7.046,11.08323 7.15197,17.53718 0.54642,7.96064 0.51909,15.9977 1.97366,23.8666 0.90907,4.7139 2.45186,9.61168 6.11139,12.93837 4.46464,4.32427 10.87125,6.35461 17.02412,5.76986 5.69072,-0.43343 11.3048,-1.53577 16.99881,-1.9453 11.24614,-1.08038 22.51741,-1.90804 33.79512,-2.56814 5.07156,-0.22726 10.15162,-0.28088 15.22618,-0.12982 -13.49174,-1.43813 -27.08196,-2.18981 -40.64665,-1.55011 -9.76553,0.2813 -19.55362,1.03602 -29.31543,0.30457 -5.73566,-0.81922 -10.24529,-5.27374 -12.83642,-10.23145 -2.50656,-4.86103 -3.26902,-10.45091 -2.78735,-15.85877 0.31738,-6.69721 1.26964,-13.4827 -0.0859,-20.12991 -1.31045,-7.67542 -5.79327,-14.98482 -12.67418,-18.84429 -5.32335,-3.21222 -11.6583,-4.40367 -17.81798,-4.20553 -5.49795,0.0505 -10.98484,0.51491 -16.4823,0.62422 -9.94791,0.36941 -19.92208,0.35638 -29.85783,-0.28523 -4.2819,-0.34775 -8.51839,-1.0734 -12.65222,-2.3235 -6.02859,-1.8313 -10.84248,-6.0473 -15.94365,-9.60561 -2.00551,-1.44887 -4.40476,-2.72931 -6.97801,-3.0253 -2.86729,-0.45157 -5.70136,0.54168 -8.14801,1.97909 -2.09098,1.13218 -4.55882,2.20667 -6.89908,1.27682 -3.68099,-1.5823 -6.85678,-4.59171 -11.02544,-4.86394 -0.95205,-0.14638 -1.9028,-0.0522 -2.84956,0.0827 z"
       inkscape:connector-curvature="0" />
  </g>
</svg>
